<?xml version="1.0" encoding="UTF-8"?>
<svg width="252px" height="251px" viewBox="0 0 252 251" version="1.1" xmlns="http://www.w3.org/2000/svg" xmlns:xlink="http://www.w3.org/1999/xlink">
    <title>VR</title>
    <g id="VR" stroke="none" stroke-width="1" fill="none" fill-rule="evenodd">
        <path d="M85.0304372,95.7870353 L85.0304372,110.019608 C110.94657,87.5484276 134.475777,76.7443042 155.61806,77.6072382 C176.760343,78.4701723 195.611489,88.6713586 212.171497,108.210797 L212.171497,114.515976 L210.112329,132.766289 L214.769427,122.419503 C218.215109,111.227094 215.891979,100.420593 207.800038,90 C195.662127,74.3691103 180.844684,70.8853518 164.116929,67.4763337 C147.389174,64.0673156 135.98677,67.7533744 122.418936,72.5998331 C113.373713,75.8308056 100.91088,83.559873 85.0304372,95.7870353 Z" id="Path-23" fill="#FF81A0"></path>
        <path d="M216.157969,117.143514 C215.499476,120.205932 214.967438,122.3454 214.561854,123.561917 C212.946106,128.408222 210.928746,131.829054 208.712315,135 C205.661333,139.3649 200.70875,144.048891 193.854567,149.051971 L193.854567,135 C201.824414,127.484936 206.776997,121.532774 208.712315,117.143514 C209.903473,114.441992 211.545343,109.360255 212.134482,105.469513 C212.379853,103.849054 212.379853,100.621561 212.134482,95.7870353 C213.477302,97.6386291 214.669994,100.115726 215.712558,103.218327 C216.755122,106.320928 216.903592,110.962657 216.157969,117.143514 Z" id="Path-39" fill="#FFCEDA"></path>
        <g id="Group-3" transform="translate(35.000000, 90.000000)">
            <path d="M39.4175981,4.62100458 L12.187576,18.0352601 L12.187576,18.0352601 L26.8140135,50.805394 L114.073901,101.858634 L138.523593,82.1608817 C146.164838,76.0047569 150.174727,66.4020862 149.180615,56.6400044 L149.003394,54.8997092 C147.917644,44.2377566 140.911493,35.0997878 130.896823,31.2837074 L58.5693358,3.72338796 C52.3379489,1.34892398 45.3995803,1.67411614 39.4175981,4.62100458 Z" id="Path-16" fill="#FFCEDA"></path>
            <path d="M-1.27897692e-13,37.6489952 L-1.27897692e-13,48.142105 C-1.26321064e-13,61.0162563 7.92825331,72.5609891 19.9439274,77.1834719 L33.2489621,82.3019775 C37.2919107,83.8573176 41.8708342,82.9055884 44.959146,79.8680158 C46.9400724,77.9196347 50.1254055,77.946018 52.0737866,79.9269445 C52.4741211,80.3339662 52.8022568,80.806159 53.0441362,81.3232942 L54.0303121,83.4317261 C56.6016996,88.929321 61.1533414,93.2538181 66.7752605,95.5406518 L91.4894426,105.593664 C102.822297,110.203541 115.746434,104.753491 120.35631,93.4206364 C121.434553,90.7699001 121.989,87.9353613 121.989,85.0737165 L121.989,77.667892 C121.989,62.304317 112.49463,48.5392162 98.1331909,43.0813305 L29.7836658,17.105946 C18.438053,12.7941874 5.74524562,18.4962528 1.433487,29.8418656 C0.48575068,32.3356623 -1.28224405e-13,34.9811822 -1.27897692e-13,37.6489952 Z" id="Path-15" fill="#050422"></path>
        </g>
        <polygon id="Path-21" fill="#FFA4BA" points="193.854567 135 171 148.560322 171 163.103943 193.628993 148.560322"></polygon>
    </g>
</svg>