<?xml version="1.0" encoding="UTF-8"?>
<svg width="568px" height="229px" viewBox="0 0 568 229" version="1.1" xmlns="http://www.w3.org/2000/svg" xmlns:xlink="http://www.w3.org/1999/xlink">
    <!-- Generator: Sketch 61.2 (89653) - https://sketch.com -->
    <title>Logo-svg</title>
    <desc>Created with Sketch.</desc>
    <defs>
        <path d="M78.4019776,105.326473 C80.4701915,105.326473 82.4414594,104.551535 84.3157782,103.001658 C86.190097,101.451782 87.1272571,99.6113042 87.1272571,97.4802244 C87.1272571,95.1554101 85.9962019,92.7660172 83.7340929,90.3120471 L77.5294497,83.5313387 C73.5869155,79.0754447 69.6443828,74.2966602 65.7018487,69.194984 C66.2189018,68.5492017 66.9944822,67.7096864 68.0285899,66.6764352 C73.5869155,61.1872898 78.0465028,56.5376613 81.4073517,52.7275494 C83.5401978,50.3381565 84.6066208,48.0133422 84.6066208,45.7531066 C84.6066208,44.0094959 83.7179344,42.3466074 81.9405632,40.7644426 C80.163192,39.1822778 78.2403979,38.3911947 76.172184,38.3911947 C73.7161799,38.3911947 71.3248065,39.811915 68.9980653,42.6533542 L50.578031,64.7390899 C50.6426631,60.2186172 50.6749785,53.6962221 50.6749785,45.171903 C50.6749785,42.9762446 49.9478719,41.2810675 48.4936586,40.0863718 C47.0394454,38.891676 45.0520206,38.2943274 42.5313844,38.2943274 C40.0753803,38.2943274 38.0717971,38.875531 36.5206363,40.0379381 C34.9694755,41.2003453 34.1938951,42.9762446 34.1938951,45.3656375 C34.1938951,51.7588768 34.1777367,59.0239215 34.1454213,67.1607715 C34.113106,75.2976215 34.0969475,82.3043529 34.0969475,88.1809673 C34.0969475,90.0537339 34.0807891,92.0395127 34.0484738,94.1383039 C34.0161584,96.2370951 34,97.6093803 34,98.2551625 C34,100.515398 34.759422,102.259009 36.2782674,103.485995 C37.7971128,104.71298 39.816853,105.294184 42.3374893,105.229605 C47.766552,105.10045 50.4810834,102.840212 50.4810834,98.448897 L50.3841359,83.628206 C50.6426631,83.3698928 51.3051376,82.6595334 52.3715606,81.4971262 C53.4379837,80.3347191 54.1974056,79.4629137 54.649828,78.8817102 L68.222485,97.0927554 C69.9029086,99.2884138 71.0985961,100.83829 71.8095443,101.742384 C73.6192324,104.131777 75.8167092,105.326473 78.4019776,105.326473 Z M147.299369,105.132738 C149.884638,105.132738 152.033641,104.438522 153.746381,103.050092 C155.459122,101.661662 156.315492,100.127929 156.315492,98.448897 C156.315492,96.8990209 155.927701,95.284566 155.152121,93.605534 C154.053383,91.2807197 151.823589,85.8884416 148.46274,77.4287012 C147.751792,75.878825 147.170107,74.6841293 146.717684,73.8446125 C141.223989,59.9603055 137.184509,50.0798448 134.59924,44.2032304 C133.177343,40.3931186 129.913443,38.4880619 124.807538,38.4880619 C122.99785,38.4880619 121.236637,38.9562532 119.523897,39.8926372 C117.811156,40.8290213 116.631628,42.1367293 115.985311,43.8157613 L104.739395,71.1323292 C102.348022,77.2026781 99.5365429,83.6604946 96.3049584,90.5057816 C95.0769557,93.2826436 94.462955,95.5751678 94.462955,97.3833572 C94.462955,99.9664846 95.4162721,101.887685 97.3229077,103.146959 C99.2295433,104.406234 101.443179,105.035871 103.963815,105.035871 C107.130769,105.035871 109.360562,103.453706 110.653196,100.289375 L114.143308,90.7963834 L122.771639,90.7963834 C130.39818,90.7963834 134.890083,90.828672 136.247349,90.8932506 C136.635139,92.313971 137.895457,95.5751678 140.028303,100.676844 C141.191674,103.647441 143.615363,105.132738 147.299369,105.132738 Z M118.505947,78.3005066 C119.023,76.7506304 120.089423,73.5378657 121.705216,68.662214 C123.321009,63.7865623 124.48438,60.15404 125.195328,57.7646471 C125.777013,59.7019923 126.988858,63.4636705 128.830861,69.0496831 C130.672865,74.6356957 131.658499,77.6547243 131.787762,78.1067721 C127.457437,78.2359279 123.030167,78.3005066 118.505947,78.3005066 Z M210.089066,105.132738 C212.480439,105.068159 214.516338,104.341655 216.196761,102.953225 C217.877185,101.564794 218.717398,99.8696174 218.717398,97.8676935 C218.717398,96.1240828 218.103397,94.4773393 216.875394,92.9274631 C211.123173,85.5009726 207.439166,80.6898995 205.823373,78.4942411 C209.054958,76.9443649 211.656385,74.5388284 213.627651,71.2776301 C215.598918,68.0164318 216.584551,64.4484881 216.584551,60.5737977 C216.584551,53.6639335 214.241652,48.2716554 209.555854,44.3969649 C204.870056,40.5222744 198.84315,38.5849292 191.475136,38.5849292 C190.182503,38.5849292 188.663657,38.6010742 186.918601,38.6333628 C185.173545,38.6656514 184.04249,38.6817965 183.525437,38.6817965 C181.651118,38.7463751 179.582903,38.8432424 177.320794,38.9723983 C174.54163,39.1015541 172.247206,39.8926372 170.437518,41.3456462 C168.62783,42.7986551 167.722987,44.8167226 167.722987,47.39985 C167.722987,48.303944 167.755302,49.7408094 167.819934,51.7104432 C167.884566,53.680077 167.916882,55.149231 167.916882,56.1179036 C167.981514,70.9708833 167.981514,84.6937459 167.916882,97.2864899 C167.916882,100.321664 168.643988,102.40431 170.098201,103.534428 C171.552415,104.664547 173.959945,105.165027 177.320794,105.035871 C181.715749,104.71298 183.913227,102.22672 183.913227,97.5770917 C183.913227,96.2855287 183.880912,93.8477021 183.81628,90.2636134 C183.751648,86.6795247 183.719332,84.1125423 183.719332,82.5626661 C184.36565,82.5626661 185.577494,82.5788111 187.354865,82.6110997 C189.132237,82.6433883 190.344081,82.6595334 190.990398,82.6595334 C192.735454,84.9843476 195.159143,88.4877141 198.261465,93.1696313 C201.363786,97.8515484 203.04421,100.386242 203.302737,100.773711 C204.14295,101.87154 204.773109,102.646478 205.193214,103.098526 C205.61332,103.550573 206.275796,104.00262 207.180639,104.454667 C208.085482,104.906715 209.054958,105.132738 210.089066,105.132738 Z M189.73008,69.194984 L183.81628,69.194984 L183.719332,52.4369477 L183.965488,52.4361909 C184.605241,52.4326592 185.702718,52.4167665 187.257918,52.388514 C189.035289,52.3562254 190.247133,52.3400804 190.893451,52.3400804 C194.2543,52.3400804 196.726462,53.0827299 198.309938,54.5680274 C199.893415,56.0533249 200.652838,58.1844047 200.588206,60.9612667 C200.523574,63.67355 199.457151,65.7239076 197.388937,67.1123378 C195.320723,68.5007681 192.76777,69.194984 189.73008,69.194984 Z M280.246776,105.132738 C282.832044,105.132738 284.981047,104.438522 286.693788,103.050092 C288.406528,101.661662 289.262898,100.127929 289.262898,98.448897 C289.262898,96.8990209 288.875107,95.284566 288.099527,93.605534 C287.000789,91.2807197 284.770995,85.8884416 281.410146,77.4287012 C280.699198,75.878825 280.117513,74.6841293 279.66509,73.8446125 C274.171395,59.9603055 270.131915,50.0798448 267.546647,44.2032304 C266.124749,40.3931186 262.860849,38.4880619 257.754944,38.4880619 C255.945256,38.4880619 254.184043,38.9562532 252.471303,39.8926372 C250.758562,40.8290213 249.579035,42.1367293 248.932717,43.8157613 L237.686801,71.1323292 C235.295428,77.2026781 232.483949,83.6604946 229.252365,90.5057816 C228.024362,93.2826436 227.410361,95.5751678 227.410361,97.3833572 C227.410361,99.9664846 228.363678,101.887685 230.270314,103.146959 C232.176949,104.406234 234.390585,105.035871 236.911221,105.035871 C240.078175,105.035871 242.307968,103.453706 243.600602,100.289375 L247.090714,90.7963834 L255.719046,90.7963834 C263.345587,90.7963834 267.837489,90.828672 269.194755,90.8932506 C269.582545,92.313971 270.842863,95.5751678 272.975709,100.676844 C274.13908,103.647441 276.562769,105.132738 280.246776,105.132738 Z M251.453353,78.3005066 C251.970407,76.7506304 253.03683,73.5378657 254.652623,68.662214 C256.268416,63.7865623 257.431786,60.15404 258.142734,57.7646471 C258.72442,59.7019923 259.936264,63.4636705 261.778267,69.0496831 C263.620271,74.6356957 264.605905,77.6547243 264.735168,78.1067721 C260.404843,78.2359279 255.977573,78.3005066 251.453353,78.3005066 Z M329.26992,105.617074 C338.641517,105.617074 346.542742,102.259009 352.973596,95.5428792 C359.404449,88.8267495 362.619877,80.6576095 362.619877,71.0354619 C362.619877,61.4778916 359.339818,53.5832098 352.7797,47.3514164 C346.219582,41.1196231 338.447622,38.0037256 329.463815,38.0037256 C320.997063,37.8745698 313.418995,41.103478 306.729615,47.6904518 C300.040234,54.2774256 296.695543,62.7694561 296.695543,73.1665417 C296.695543,82.8532679 299.959444,90.6833711 306.487246,96.6568527 C313.015047,102.630334 320.609272,105.617074 329.26992,105.617074 Z M329.65771,90.4089143 C324.874965,90.4089143 320.93243,88.7460258 317.830109,85.4202503 C314.727787,82.0944748 313.176627,77.6547243 313.176627,72.1010018 C313.176627,66.4827006 314.63084,61.8653607 317.539266,58.2489834 C320.447693,54.6326061 324.228647,52.8244167 328.88213,52.8244167 C333.664875,52.8244167 337.736672,54.4873052 341.097521,57.8130807 C344.45837,61.1388562 346.138793,65.6108953 346.138793,71.2291965 C346.138793,76.3954499 344.539159,80.8836341 341.33989,84.6937459 C338.140621,88.5038577 334.24656,90.4089143 329.65771,90.4089143 Z M419.59272,105.326473 C421.660934,105.326473 423.632202,104.551535 425.50652,103.001658 C427.380839,101.451782 428.317999,99.6113042 428.317999,97.4802244 C428.317999,95.1554101 427.186944,92.7660172 424.924835,90.3120471 L418.720192,83.5313387 C414.777658,79.0754447 410.835125,74.2966602 406.892591,69.194984 C407.409644,68.5492017 408.185224,67.7096864 409.219332,66.6764352 C414.777658,61.1872898 419.237245,56.5376613 422.598094,52.7275494 C424.73094,50.3381565 425.797363,48.0133422 425.797363,45.7531066 C425.797363,44.0094959 424.908677,42.3466074 423.131306,40.7644426 C421.353934,39.1822778 419.43114,38.3911947 417.362926,38.3911947 C414.906922,38.3911947 412.515549,39.811915 410.188808,42.6533542 L391.768773,64.7390899 C391.833405,60.2186172 391.865721,53.6962221 391.865721,45.171903 C391.865721,42.9762446 391.138614,41.2810675 389.684401,40.0863718 C388.230188,38.891676 386.242763,38.2943274 383.722127,38.2943274 C381.266123,38.2943274 379.262539,38.875531 377.711379,40.0379381 C376.160218,41.2003453 375.384637,42.9762446 375.384637,45.3656375 C375.384637,51.7588768 375.368479,59.0239215 375.336164,67.1607715 C375.303848,75.2976215 375.28769,82.3043529 375.28769,88.1809673 C375.28769,90.0537339 375.271531,92.0395127 375.239216,94.1383039 C375.206901,96.2370951 375.190742,97.6093803 375.190742,98.2551625 C375.190742,100.515398 375.950164,102.259009 377.46901,103.485995 C378.987855,104.71298 381.007595,105.294184 383.528232,105.229605 C388.957294,105.10045 391.671826,102.840212 391.671826,98.448897 L391.574878,83.628206 C391.833405,83.3698928 392.49588,82.6595334 393.562303,81.4971262 C394.628726,80.3347191 395.388148,79.4629137 395.84057,78.8817102 L409.413227,97.0927554 C411.093651,99.2884138 412.289338,100.83829 413.000287,101.742384 C414.809975,104.131777 417.007451,105.326473 419.59272,105.326473 Z M478.504514,104.842136 C482.834839,104.583823 485,102.129853 485,97.4802244 C485,92.7660172 482.964101,90.4089143 478.892304,90.4089143 C478.116724,90.4089143 475.725351,90.473493 471.718186,90.6026488 C465.255015,90.7318047 460.213743,90.7640948 456.594368,90.6995161 C456.594368,89.924578 456.57821,88.6975922 456.545894,87.0185601 C456.518195,85.5793898 456.502367,84.4723351 456.49841,83.6973969 L456.49742,83.3376042 C456.49742,81.2065244 456.529736,79.6566482 456.594368,78.6879756 L473.657137,78.6879756 C477.987461,78.6879756 480.217255,76.4600286 480.346518,72.0041346 C480.41115,69.0981167 479.780991,67.2253501 478.45604,66.3858334 C477.13109,65.5463166 475.046718,65.126559 472.202923,65.126559 C471.491975,65.126559 469.488392,65.1588476 466.192175,65.2234262 C463.195615,65.2821341 460.973567,65.314156 459.52603,65.3194929 L456.885211,65.3202935 L456.885211,65.2234262 L457.079106,56.6022399 L457.079106,52.4369477 L461.229465,52.4362559 C473.290527,52.4258025 479.630562,52.2968772 480.24957,52.0494786 C482.899469,51.2099618 484.159787,48.8205704 484.030525,44.8813012 C483.965892,43.1376905 483.36805,41.6685366 482.236995,40.4738408 C481.10594,39.2791451 479.570937,38.6817965 477.631986,38.6817965 C477.050301,38.6817965 475.838457,38.6979415 473.996453,38.7302301 C472.15445,38.7625187 469.375286,38.7948088 465.658964,38.8270974 C461.942642,38.859386 457.499211,38.875531 452.328676,38.875531 C451.940886,38.8109523 450.777515,38.7786637 448.838564,38.7786637 C446.641086,38.7786637 444.815241,39.3921559 443.361028,40.6191417 C441.906814,41.8461275 441.115075,43.5251596 440.985813,45.6562393 C440.985813,47.9500566 440.970921,51.300269 440.941139,55.7068765 L440.937339,56.2632045 C440.905023,60.9451217 440.888865,64.4807767 440.888865,66.8701697 C440.888865,70.2928124 440.840391,74.3289488 440.743444,78.9785774 C440.646496,83.628206 440.565707,87.4383178 440.501075,90.4089143 C440.436443,93.3795108 440.404127,94.9939642 440.404127,95.2522774 C440.404127,96.0272155 440.468759,96.9958881 440.598022,98.1582953 C440.85655,100.741423 441.761393,102.501177 443.312554,103.437561 C444.863715,104.373945 447.513614,104.842136 451.262253,104.842136 L478.504514,104.842136 Z M82.1829321,202 C84.7035684,202 86.933362,201.370363 88.872313,200.111088 C90.811264,198.851814 91.7807395,197.156637 91.7807395,195.025557 C91.7807395,190.569663 91.764581,186.420516 91.7322657,182.578114 C91.7044076,179.265699 91.6885568,177.117092 91.6847142,176.132294 L91.6845493,174.283098 C91.6879577,170.792471 91.7028694,166.003076 91.7292835,159.914911 L91.7322657,159.233104 C91.764581,151.903481 91.7807395,146.365903 91.7807395,142.620368 C91.7807395,140.295554 91.0536328,138.519655 89.5994196,137.292669 C88.1452064,136.065683 86.2870445,135.452191 84.0249355,135.452191 C80.9872461,135.452191 78.7897678,136.065683 77.4325021,137.292669 C76.0752365,138.519655 75.428919,140.683023 75.4935512,143.782776 L75.6874463,159.959608 L75.688271,160.490822 C75.6919364,161.784827 75.7078197,163.835703 75.73592,166.643449 C75.7682354,169.872358 75.7843938,172.100305 75.7843938,173.32729 L73.16681,169.161998 L52.8078246,140.77989 C50.2871883,137.22809 47.4110772,135.452191 44.1794927,135.452191 C41.7881193,135.452191 39.5744841,136.04954 37.5385856,137.244235 C35.502687,138.438931 34.4524224,140.069531 34.3877902,142.136032 L34.3877902,173.617892 C34.323158,183.627509 34.2908426,190.827976 34.2908426,195.219292 C34.4847377,199.739764 37.2962167,202 42.7252794,202 C44.9873884,202 46.8293919,201.386508 48.2512898,200.159522 C49.6731877,198.932536 50.3841359,196.995191 50.3841359,194.347486 C50.3841359,191.764359 50.3195037,186.920996 50.1902408,179.817397 C50.0609779,172.713798 50.028661,166.901763 50.0932932,162.38129 L73.8454428,196.575433 C75.0734456,198.4482 76.3014469,199.820487 77.5294497,200.692292 C78.7574525,201.564097 80.3086133,202 82.1829321,202 Z M116.760891,201.903133 C119.087633,201.903133 121.058899,201.338074 122.674692,200.207956 C124.290485,199.077837 125.066065,197.38266 125.001433,195.122424 L124.904486,178.945592 L124.904486,175.070901 C124.904486,173.71476 124.920644,171.825848 124.952959,169.404166 C124.985275,166.982485 125.001433,165.19044 125.001433,164.028033 C124.936801,157.570215 124.904486,150.111436 124.904486,141.651696 C124.904486,139.585195 124.16122,137.986885 122.674692,136.856766 C121.188163,135.726648 119.313843,135.161589 117.051734,135.161589 C114.660361,135.161589 112.656779,135.742793 111.040986,136.9052 C109.425193,138.067607 108.649613,139.940374 108.714245,142.523501 C108.778877,146.591926 108.811192,152.468541 108.811192,160.153343 L108.617297,185.629433 C108.617297,186.662684 108.601139,188.244849 108.568823,190.375929 C108.536508,192.507008 108.52035,193.86315 108.52035,194.444354 C108.455717,196.833747 109.198983,198.674225 110.750143,199.965788 C112.301304,201.25735 114.304887,201.903133 116.760891,201.903133 Z M163.554242,201.903133 C166.333405,201.903133 168.498567,201.273496 170.049728,200.014221 C171.600889,198.754947 172.344154,196.866035 172.279521,194.347486 C172.090867,178.639281 171.99399,165.101356 171.988891,153.733711 L171.988679,149.885413 L185.076598,149.98228 C189.277658,149.98228 191.378189,147.399153 191.378189,142.232899 C191.378189,137.777005 189.277658,135.549058 185.076598,135.549058 C183.202279,135.549058 180.681643,135.565203 177.514689,135.597492 C174.347735,135.629781 171.552415,135.678214 169.128726,135.742793 C166.907011,135.80199 165.62212,135.834054 165.274051,135.838987 L151.471352,135.838759 C148.793343,135.834957 146.826383,135.819112 145.570471,135.791227 C144.116258,135.758938 143.259889,135.742793 143.001361,135.742793 C138.477142,135.807372 136.215033,138.132186 136.215033,142.717236 C136.215033,147.625177 138.347879,150.079148 142.613571,150.079148 L144.247541,150.078475 C150.068433,150.073542 154.015681,150.041477 156.089281,149.98228 C156.218544,156.052629 156.283176,159.572139 156.283176,160.540812 L155.992333,194.638088 C155.927701,197.156637 156.574018,198.997115 157.931284,200.159522 C159.28855,201.321929 161.162869,201.903133 163.554242,201.903133 Z M239.916595,201.709398 C244.246919,201.451085 246.412081,198.997115 246.412081,194.347486 C246.412081,189.633279 244.376182,187.276176 240.304385,187.276176 C239.528805,187.276176 237.137431,187.340755 233.130267,187.469911 C226.667096,187.599067 221.625824,187.631357 218.006449,187.566778 C218.006449,186.79184 217.99029,185.564854 217.957975,183.885822 C217.930276,182.446652 217.914448,181.339597 217.910491,180.564659 L217.909501,180.204866 C217.909501,178.073786 217.941817,176.52391 218.006449,175.555238 L235.069218,175.555238 C239.399542,175.555238 241.629336,173.32729 241.758598,168.871396 C241.823231,165.965379 241.193072,164.092612 239.868121,163.253095 C238.543171,162.413578 236.458799,161.993821 233.615004,161.993821 C232.904056,161.993821 230.900473,162.026109 227.604256,162.090688 C224.607696,162.149396 222.385648,162.181418 220.938111,162.186755 L218.297291,162.187555 L218.297291,162.090688 L218.491187,153.469502 L218.491187,149.30421 L222.641546,149.303518 C234.702607,149.293064 241.042643,149.164139 241.661651,148.91674 C244.31155,148.077224 245.571868,145.687832 245.442605,141.748563 C245.377973,140.004952 244.780131,138.535798 243.649076,137.341103 C242.51802,136.146407 240.983018,135.549058 239.044067,135.549058 C238.462382,135.549058 237.250537,135.565203 235.408534,135.597492 C233.566531,135.629781 230.787367,135.662071 227.071045,135.694359 C223.354722,135.726648 218.911292,135.742793 213.740757,135.742793 C213.352966,135.678214 212.189596,135.645926 210.250645,135.645926 C208.053167,135.645926 206.227322,136.259418 204.773108,137.486404 C203.318895,138.713389 202.527156,140.392421 202.397893,142.523501 C202.397893,144.817318 202.383002,148.167531 202.35322,152.574138 L202.34942,153.130466 C202.317104,157.812384 202.300946,161.348039 202.300946,163.737432 C202.300946,167.160074 202.252472,171.196211 202.155525,175.845839 C202.058577,180.495468 201.977788,184.30558 201.913156,187.276176 C201.848523,190.246773 201.816208,191.861226 201.816208,192.119539 C201.816208,192.894477 201.88084,193.86315 202.010103,195.025557 C202.26863,197.608685 203.173474,199.368439 204.724635,200.304823 C206.275795,201.241207 208.925695,201.709398 212.674334,201.709398 L239.916595,201.709398 Z" id="path-1"></path>
        <filter x="-13.3%" y="-36.6%" width="126.6%" height="173.2%" filterUnits="objectBoundingBox" id="filter-2">
            <feMorphology radius="2.5" operator="dilate" in="SourceAlpha" result="shadowSpreadOuter1"></feMorphology>
            <feOffset dx="0" dy="0" in="shadowSpreadOuter1" result="shadowOffsetOuter1"></feOffset>
            <feGaussianBlur stdDeviation="17.5" in="shadowOffsetOuter1" result="shadowBlurOuter1"></feGaussianBlur>
            <feColorMatrix values="0 0 0 0 0.795673077   0 0 0 0 0   0 0 0 0 1  0 0 0 1 0" type="matrix" in="shadowBlurOuter1"></feColorMatrix>
        </filter>
    </defs>
    <g id="Logo-svg" stroke="none" stroke-width="1" fill="none" fill-rule="evenodd">
        <g id="Logo" transform="translate(499.000000, 0.000000)">
            <g id="beta-tag" transform="translate(34.500000, 21.500000) rotate(-10.000000) translate(-34.500000, -21.500000) translate(3.000000, 6.000000)">
                <g id="Group">
                    <rect id="Rectangle" fill="#FE3466" x="0" y="0" width="63" height="31" rx="2.025"></rect>
                    <path d="M16.450193,23.9246528 C17.918993,23.9246528 19.128593,23.4170528 20.078993,22.4018528 C21.029393,21.3866528 21.504593,20.1374529 21.504593,18.6542528 C21.504593,17.2718528 21.061793,16.0910527 20.176193,15.1118528 C19.290593,14.1326529 18.156593,13.6430528 16.774193,13.6430528 C15.391793,13.6430528 14.4053929,14.1326529 13.814993,15.1118528 L13.8153764,14.9366244 C13.8184439,14.1462432 13.8399161,12.2822527 13.879793,9.34465279 C13.8941931,8.85505268 13.7573929,8.52025268 13.469393,8.34025279 C13.1813931,8.16025289 12.8069929,8.07025279 12.346193,8.07025279 C11.4245929,8.07025279 10.9565931,8.53105268 10.942193,9.45265279 L10.985393,18.3734528 L10.920593,22.2614528 C10.8917931,23.2838527 11.2805931,23.8022527 12.086993,23.8166528 C12.8933929,23.8598528 13.3685929,23.5430527 13.512593,22.8662528 L13.555793,22.3478528 C13.8293931,22.8374529 14.2289931,23.2226528 14.754593,23.5034528 C15.2801929,23.7842528 15.845393,23.9246528 16.450193,23.9246528 Z M16.126193,21.4190528 C15.5069929,21.4190528 14.970593,21.1778527 14.516993,20.6954528 C14.063393,20.2130529 13.836593,19.5974529 13.836593,18.8486528 C13.836593,18.0278528 14.074193,17.3834529 14.549393,16.9154528 C15.024593,16.4474527 15.607793,16.2134528 16.298993,16.2134528 C16.9181931,16.2134528 17.4473931,16.4474527 17.886593,16.9154528 C18.3257929,17.3834529 18.545393,17.9702527 18.545393,18.6758528 C18.545393,19.4534528 18.3041929,20.1050529 17.821793,20.6306528 C17.3393931,21.1562527 16.774193,21.4190528 16.126193,21.4190528 Z M27.984593,23.9246528 C29.453393,23.9246528 30.6125931,23.6582529 31.462193,23.1254528 C31.9517931,22.8374529 32.196593,22.4558528 32.196593,21.9806528 C32.196593,21.6062529 32.077793,21.2786528 31.840193,20.9978528 C31.602593,20.7170528 31.3181929,20.5766528 30.986993,20.5766528 C30.7133929,20.5766528 30.3893929,20.6774529 30.014993,20.8790528 C29.4677931,21.2102527 28.8629931,21.3758528 28.200593,21.3758528 C27.6533931,21.3758528 27.1673931,21.2030528 26.742593,20.8574528 C26.3177929,20.5118528 26.0765931,20.0798528 26.018993,19.5614528 C28.351793,19.5470527 29.971793,19.5254527 30.878993,19.4966528 C31.570193,19.4822527 32.0273931,19.3382529 32.250593,19.0646528 C32.4737929,18.7910527 32.585393,18.3302528 32.585393,17.6822528 C32.585393,16.6310527 32.1569931,15.6986529 31.300193,14.8850528 C30.4433929,14.0714527 29.3741929,13.6646528 28.092593,13.6646528 C26.666993,13.6646528 25.4645929,14.1830528 24.485393,15.2198528 C23.5061931,16.2566528 23.016593,17.5454529 23.016593,19.0862528 C23.0309931,20.4254528 23.5205929,21.5666527 24.485393,22.5098528 C25.4501931,23.4530529 26.6165931,23.9246528 27.984593,23.9246528 Z M26.018993,17.7686528 C26.062193,17.2934528 26.2817931,16.8794527 26.677793,16.5266528 C27.0737929,16.1738529 27.5453931,15.9974528 28.092593,15.9974528 C28.567793,15.9974528 28.9709931,16.1414529 29.302193,16.4294528 C29.6333929,16.7174527 29.798993,17.0918529 29.798993,17.5526528 C29.798993,17.6390528 29.712593,17.6822528 29.539793,17.6822528 C28.3877931,17.7398529 27.2141929,17.7686528 26.018993,17.7686528 Z M38.849393,23.8814528 C39.6845931,23.8814528 40.296593,23.7590527 40.685393,23.5142528 C41.0453931,23.2838527 41.225393,22.8734527 41.225393,22.2830528 C41.225393,21.9806528 41.128193,21.7106528 40.933793,21.4730528 C40.739393,21.2354528 40.490993,21.1166528 40.188593,21.1166528 C40.0877929,21.1166528 39.950993,21.1382528 39.778193,21.1814528 C39.605393,21.2246528 39.432593,21.2462528 39.259793,21.2462528 C38.6405929,21.2462528 38.330993,20.7062528 38.330993,19.6262528 L38.330993,16.3430528 L40.037393,16.3430528 C40.382993,16.3430528 40.6457931,16.2242528 40.825793,15.9866528 C41.0057929,15.7490528 41.095793,15.4502529 41.095793,15.0902528 C41.095793,14.2550527 40.6925929,13.8374528 39.886193,13.8374528 L38.330993,13.8590528 C38.3597929,12.9086528 38.374193,12.3182529 38.374193,12.0878528 C38.374193,11.2670528 37.9781931,10.8566528 37.186193,10.8566528 C36.149393,10.8566528 35.6165929,11.4110529 35.587793,12.5198528 L35.544593,13.8590528 L34.658993,13.8590528 C34.313393,13.8590528 34.032593,13.9742527 33.816593,14.2046528 C33.600593,14.4350529 33.492593,14.7302527 33.492593,15.0902528 C33.492593,15.9398527 33.8525931,16.3646528 34.572593,16.3646528 L35.544593,16.3646528 C35.544593,16.7390527 35.5373931,17.3294529 35.522993,18.1358528 C35.5085929,18.9422527 35.501393,19.5398528 35.501393,19.9286528 C35.501393,22.5638528 36.6173931,23.8814528 38.849393,23.8814528 Z M47.100593,23.9030528 C48.4109931,23.9030528 49.3757929,23.3846528 49.994993,22.3478528 C50.1101929,22.8806529 50.264993,23.2622527 50.459393,23.4926528 C50.653793,23.7230529 50.9309929,23.8382528 51.290993,23.8382528 C52.2989931,23.8382528 52.802993,23.4278528 52.802993,22.6070528 C52.7453929,21.5126527 52.716593,20.6846528 52.716593,20.1230528 L52.738193,16.8614528 L52.759793,15.1766528 C52.759793,14.2406529 52.2989931,13.7726528 51.377393,13.7726528 C50.8445929,13.7726528 50.470193,13.9742527 50.254193,14.3774528 C50.1821931,14.5358527 50.1173931,14.7590529 50.059793,15.0470528 C49.454993,14.1542529 48.5621931,13.7078528 47.381393,13.7078528 C45.9269931,13.7078528 44.7209929,14.2010527 43.763393,15.1874528 C42.8057931,16.1738529 42.326993,17.4590529 42.326993,19.0430528 C42.326993,20.4398529 42.7661929,21.5990527 43.644593,22.5206528 C44.5229931,23.4422529 45.674993,23.9030528 47.100593,23.9030528 Z M47.489393,21.3974528 C46.884593,21.3974528 46.3733929,21.1670527 45.955793,20.7062528 C45.5381931,20.2454529 45.329393,19.6694528 45.329393,18.9782528 C45.329393,18.1430527 45.5417929,17.4770528 45.966593,16.9802528 C46.3913931,16.4834528 46.9421931,16.2350528 47.618993,16.2350528 C48.2381931,16.2350528 48.774593,16.4654529 49.228193,16.9262528 C49.681793,17.3870527 49.908593,18.0134527 49.908593,18.8054528 C49.908593,19.5830528 49.6781929,20.2094528 49.217393,20.6846528 C48.7565931,21.1598528 48.180593,21.3974528 47.489393,21.3974528 Z" id="beta" fill="#FFFFFF" fill-rule="nonzero"></path>
                </g>
            </g>
        </g>
        <g id="KARAOKENITE" fill-rule="nonzero">
            <use fill="black" fill-opacity="1" filter="url(#filter-2)" xlink:href="#path-1"></use>
            <use fill="#FFFFFF" xlink:href="#path-1"></use>
        </g>
    </g>
</svg>