<svg width="23" height="28" viewBox="0 0 23 28" fill="none" xmlns="http://www.w3.org/2000/svg">
<path d="M9.80012 10.3535L17.6816 1.77846C18.0701 1.35572 18.734 1.34625 19.1345 1.75773L21.3404 4.02442C21.7105 4.40472 21.7191 5.00787 21.36 5.39856L13.4309 14.0254C13.3124 14.1543 13.1621 14.2499 12.995 14.3025L9.81571 15.3034C9.04722 15.5453 8.32276 14.8256 8.55961 14.0556L9.58056 10.7362C9.62434 10.5939 9.69935 10.4631 9.80012 10.3535Z" stroke="#050422" stroke-width="2"/>
<path d="M9.05 6.375C9.60228 6.375 10.05 5.92728 10.05 5.375C10.05 4.82272 9.60228 4.375 9.05 4.375V6.375ZM5.025 20.2659L6.02334 20.3234L6.08429 19.2659H5.025V20.2659ZM9.78182 20.2659V19.2659H9.27727L8.97748 19.6717L9.78182 20.2659ZM22.125 13.8819C22.125 13.3297 21.6773 12.8819 21.125 12.8819C20.5727 12.8819 20.125 13.3297 20.125 13.8819H22.125ZM6.61845 24.5481L7.42278 25.1423L6.61845 24.5481ZM9.05 4.375H3V6.375H9.05V4.375ZM0 7.375V18.2659H2V7.375H0ZM3 21.2659H5.025V19.2659H3V21.2659ZM4.02666 20.2083L3.81743 23.8388L5.81411 23.9539L6.02334 20.3234L4.02666 20.2083ZM7.42278 25.1423L10.5862 20.86L8.97748 19.6717L5.81411 23.9539L7.42278 25.1423ZM9.78182 21.2659H19.125V19.2659H9.78182V21.2659ZM22.125 18.2659V13.8819H20.125V18.2659H22.125ZM3.81743 23.8388C3.70302 25.824 6.24128 26.7417 7.42278 25.1423L5.81411 23.9539L5.81411 23.9539L3.81743 23.8388ZM0 18.2659C0 19.9227 1.34315 21.2659 3 21.2659V19.2659C2.44771 19.2659 2 18.8181 2 18.2659H0ZM19.125 21.2659C20.7819 21.2659 22.125 19.9227 22.125 18.2659H20.125C20.125 18.8181 19.6773 19.2659 19.125 19.2659V21.2659ZM3 4.375C1.34314 4.375 0 5.71815 0 7.375H2C2 6.82271 2.44772 6.375 3 6.375V4.375Z" fill="#050422"/>
</svg>
