<?xml version="1.0" encoding="UTF-8"?>
<svg width="50px" height="50px" viewBox="0 0 50 50" version="1.1" xmlns="http://www.w3.org/2000/svg" xmlns:xlink="http://www.w3.org/1999/xlink">
    <!-- Generator: Sketch 61.2 (89653) - https://sketch.com -->
    <title>Smiley - Lime</title>
    <desc>Created with Sketch.</desc>
    <g id="Smiley---Lime" stroke="none" stroke-width="1" fill="none" fill-rule="evenodd">
        <circle id="Oval" stroke="#050422" stroke-width="2" fill="#EEFF94" cx="25" cy="25" r="24"></circle>
        <g id="Group-2" transform="translate(4.000000, 19.000000)" fill="#C8EF00">
            <circle id="Oval" cx="6" cy="6" r="6"></circle>
            <circle id="Oval" cx="37" cy="6" r="6"></circle>
        </g>
        <g id="Group" transform="translate(9.000000, 16.000000)" stroke="#050422" stroke-linecap="round" stroke-linejoin="round" stroke-width="2">
            <path d="M0,4.03890615 C1.26904671,1.75361288 3.04175774,0.433997308 5.31813308,0.0800594275 C7.59450843,-0.273878453 9.36721945,0.54573712 10.6362662,2.53890615" id="Path-15"></path>
            <path d="M20.7326961,4.03890615 C22.0017428,1.75361288 23.7744538,0.433997308 26.0508292,0.0800594275 C28.3272045,-0.273878453 30.0999156,0.54573712 31.3689623,2.53890615" id="Path-15" transform="translate(26.050829, 2.019453) scale(-1, 1) translate(-26.050829, -2.019453) "></path>
        </g>
        <path d="M18,27 C19.8448693,29.6666667 22.3448693,31 25.5,31 C28.6551307,31 31.1551307,29.6666667 33,27" id="Path-16" stroke="#050422" stroke-width="2" stroke-linecap="round" stroke-linejoin="round"></path>
    </g>
</svg>